HIERARCHY
ROOT Hips
{
  OFFSET 51.4629 57.6194 -16.1161
  CHANNELS 6 Xposition Yposition Zposition Zrotation Xrotation Yrotation
  JOINT spine
  {
    OFFSET 0 7.4756 0.429885
    CHANNELS 3 Zrotation Xrotation Yrotation
    JOINT spine1
    {
      OFFSET 0 9.92301 0
      CHANNELS 3 Zrotation Xrotation Yrotation
      JOINT spine2
      {
        OFFSET 0 9.50804 0
        CHANNELS 3 Zrotation Xrotation Yrotation
        JOINT Neck
        {
          OFFSET 0 24.4111 1.16384
          CHANNELS 3 Zrotation Xrotation Yrotation
          JOINT Head
          {
            OFFSET 0 7.37523 0
            CHANNELS 3 Zrotation Xrotation Yrotation
            End Site
            {
              OFFSET 0 17.8522 -5.88741
            }
          }
        }
        JOINT RightShoulder
        {
          OFFSET -4.00356 10.2679 -0.557468
          CHANNELS 3 Zrotation Xrotation Yrotation
          JOINT RightArm
          {
            OFFSET 0 13.4673 0
            CHANNELS 3 Zrotation Xrotation Yrotation
            JOINT RightArmRoll
            {
              OFFSET 0 6.79858 0
              CHANNELS 3 Zrotation Xrotation Yrotation
              JOINT RightForeArm
              {
                OFFSET 0 19.8018 0
                CHANNELS 3 Zrotation Xrotation Yrotation
                JOINT RightForeArmRoll
                {
                  OFFSET 0 7.62905 0
                  CHANNELS 3 Zrotation Xrotation Yrotation
                  JOINT RightHand
                  {
                    OFFSET 0 15.3098 0
                    CHANNELS 3 Zrotation Xrotation Yrotation
                    End Site
                    {
                      OFFSET 0 0 0
                    }
                  }
                }
              }
            }
          }
        }
        JOINT LeftShoulder
        {
          OFFSET 4.00356 10.2679 -0.557468
          CHANNELS 3 Zrotation Xrotation Yrotation
          JOINT LeftArm
          {
            OFFSET 0 13.4673 0
            CHANNELS 3 Zrotation Xrotation Yrotation
            JOINT LeftArmRoll
            {
              OFFSET 0 6.79858 0
              CHANNELS 3 Zrotation Xrotation Yrotation
              JOINT LeftForeArm
              {
                OFFSET 0 19.8018 0
                CHANNELS 3 Zrotation Xrotation Yrotation
                JOINT LeftForeArmRoll
                {
                  OFFSET 0 7.62905 0
                  CHANNELS 3 Zrotation Xrotation Yrotation
                  JOINT LeftHand
                  {
                    OFFSET 0 15.3098 0
                    CHANNELS 3 Zrotation Xrotation Yrotation
                    End Site
                    {
                      OFFSET 0 0 0
                    }
                  }
                }
              }
            }
          }
        }
      }
    }
  }
  JOINT RightUpLeg
  {
    OFFSET -6.62609 -1.21505 -1.01927
    CHANNELS 3 Zrotation Xrotation Yrotation
    JOINT RightUpLegRoll
    {
      OFFSET 0 17.9517 0
      CHANNELS 3 Zrotation Xrotation Yrotation
      JOINT RightLeg
      {
        OFFSET 0 -22.2304 0
        CHANNELS 3 Zrotation Xrotation Yrotation
        JOINT RightLegRoll
        {
          OFFSET 0 22.3032 0
          CHANNELS 3 Zrotation Xrotation Yrotation
          JOINT RightFoot
          {
            OFFSET 0 18.5636 0
            CHANNELS 3 Zrotation Xrotation Yrotation
            JOINT RightToeBase
            {
              OFFSET 0 15.5183 0
              CHANNELS 3 Zrotation Xrotation Yrotation
              End Site
              {
                OFFSET 0.00657761 7.51538 -0.866263
              }
            }
          }
        }
      }
    }
  }
  JOINT LeftUpLeg
  {
    OFFSET 6.62609 -1.21505 -1.01927
    CHANNELS 3 Zrotation Xrotation Yrotation
    JOINT LeftUpLegRoll
    {
      OFFSET 0 17.9518 0
      CHANNELS 3 Zrotation Xrotation Yrotation
      JOINT LeftLeg
      {
        OFFSET 0 22.2303 0
        CHANNELS 3 Zrotation Xrotation Yrotation
        JOINT LeftLegRoll
        {
          OFFSET 0 22.5093 0
          CHANNELS 3 Zrotation Xrotation Yrotation
          JOINT LeftFoot
          {
            OFFSET 0 18.3575 0
            CHANNELS 3 Zrotation Xrotation Yrotation
            JOINT LeftToeBase
            {
              OFFSET 0 15.5183 0
              CHANNELS 3 Zrotation Xrotation Yrotation
              End Site
              {
                OFFSET -0.029478 7.51538 -0.866263
              }
            }
          }
        }
      }
    }
  }
}
MOTION
Frames: 12
Frame Time: 0.00208333
54.4704 93.9062 22.0255 -1.32781 -4.20559 -2.013 -0.0648787 -1.06175 -0.0230414 -0.123697 1.88243 -0.0274181 -0.123281 3.52751 -0.0252348 -6.20553 8.01372 -1.54735 8.7423 2.59109 -2.28062 68.9494 -2.67524 -2.55229 104.359 20.9743 17.895 7.45785e-007 1.66361e-006 -3.35483e-006 4.91695 0.0403207 -1.52442 4.08196e-006 -1.46145e-006 -3.10729 8.02957 -4.95143 0.697668 -73.6274 -3.56488 3.33936 -95.1288 13.3108 -29.3334 -1.88384e-007 3.23806e-006 1.88198e-006 3.23189 -0.014195 0.826029 1.21537e-005 -5.07457e-007 3.03685 -8.0301 -4.95138 -0.697632 -176.235 -3.23598 -2.61306 -180 7.01551e-015 178.943 178.119 6.67921 179.738 -2.44369e-006 -3.53375e-006 0.0625115 -18.3625 67.7459 19.3118 8.1431 25.2323 -3.49056 -178.599 -0.953043 1.84895 4.54188e-006 -4.6773e-006 -1.10321 -3.17163 -10.9638 0.00909753 -3.7472e-006 -6.57379e-007 -0.156295 19.5782 69.2643 -20.6403 -8.14285 25.2323 3.49045 
54.4751 93.9088 22.0251 -1.32385 -4.20933 -2.01622 -0.064879 -1.06248 -0.021729 -0.12376 1.88074 -0.0256315 -0.123398 3.52582 -0.0234589 -6.20558 8.05207 -1.54662 8.74962 2.56283 -2.27906 68.97 -2.66523 -2.549 104.319 21.0074 17.8836 7.45785e-007 1.66361e-006 -3.35483e-006 4.92853 0.0402945 -1.52454 4.08196e-006 -1.46145e-006 -3.10729 8.02957 -4.95143 0.697668 -73.6306 -3.57043 3.34207 -95.1176 13.3243 -29.2968 -1.88384e-007 3.23806e-006 1.88198e-006 3.19716 -0.0142029 0.82602 1.21537e-005 -5.07457e-007 3.03648 -8.0301 -4.95138 -0.697632 -176.245 -3.23419 -2.60759 -180 7.01551e-015 178.943 178.12 6.68757 179.738 -2.44369e-006 -3.53375e-006 0.062754 -18.3647 67.7485 19.314 8.1431 25.2323 -3.49056 -178.61 -0.957154 1.85722 4.54188e-006 -4.6773e-006 -1.10321 -3.16795 -10.9591 0.0101706 -3.7472e-006 -6.57379e-007 -0.156295 19.5786 69.2648 -20.6407 -8.14285 25.2323 3.49045 
54.4919 93.9095 22.0466 -1.31991 -4.21275 -2.01947 -0.0648793 -1.06332 -0.0204137 -0.12382 1.87883 -0.0238696 -0.123513 3.52391 -0.0217081 -6.20582 8.09081 -1.5459 8.75738 2.53451 -2.27752 68.9909 -2.65504 -2.54565 104.278 21.0409 17.8728 7.45785e-007 1.66361e-006 -3.35483e-006 4.93971 0.0402559 -1.52471 4.08196e-006 -1.46145e-006 -3.1073 8.02957 -4.95143 0.697668 -73.6331 -3.5763 3.34488 -95.1068 13.3382 -29.2611 -1.88384e-007 3.23806e-006 1.88198e-006 3.16348 -0.0142145 0.826012 1.21537e-005 -5.07457e-007 3.03613 -8.0301 -4.95138 -0.697632 -176.255 -3.23228 -2.60242 -180 7.01551e-015 178.943 178.121 6.69607 179.738 -2.44369e-006 -3.53375e-006 0.0629968 -18.3668 67.7511 19.3162 8.1431 25.2323 -3.49056 -178.621 -0.96082 1.86584 4.54188e-006 -4.6773e-006 -1.10321 -3.1639 -10.9545 0.0113156 -3.7472e-006 -6.57379e-007 -0.156295 19.5793 69.2656 -20.6414 -8.14285 25.2323 3.49045 
54.4926 93.9138 22.0359 -1.31599 -4.21594 -2.02275 -0.0648796 -1.06423 -0.0190963 -0.123877 1.87678 -0.0221249 -0.123626 3.52186 -0.0199749 -6.20618 8.12981 -1.54517 8.76546 2.50614 -2.27599 69.0121 -2.64472 -2.54226 104.237 21.0746 17.8624 7.45785e-007 1.66361e-006 -3.35483e-006 4.95061 0.0402085 -1.52491 4.08196e-006 -1.46145e-006 -3.1073 8.02957 -4.95143 0.697668 -73.6352 -3.5824 3.34776 -95.0962 13.3522 -29.2261 -1.88384e-007 3.23806e-006 1.88198e-006 3.13052 -0.0142286 0.826004 1.21537e-005 -5.07457e-007 3.03578 -8.0301 -4.95138 -0.697632 -176.266 -3.23027 -2.59746 -180 7.01551e-015 178.943 178.123 6.70467 179.738 -2.44369e-006 -3.53375e-006 0.0632398 -18.3689 67.7537 19.3184 8.1431 25.2323 -3.49056 -178.632 -0.964173 1.8747 4.54188e-006 -4.6773e-006 -1.10321 -3.15958 -10.9499 0.0125108 -3.7472e-006 -6.57379e-007 -0.156295 19.5802 69.2665 -20.6423 -8.14285 25.2323 3.49045 
54.4977 93.9134 22.0266 -1.31207 -4.219 -2.02604 -0.0648798 -1.06518 -0.0177777 -0.123933 1.87464 -0.0203899 -0.123738 3.51972 -0.0182519 -6.20662 8.16897 -1.54444 8.7737 2.47776 -2.27447 69.0335 -2.63433 -2.53884 104.196 21.1085 17.8522 7.45785e-007 1.66361e-006 -3.35483e-006 4.96135 0.0401562 -1.52513 4.08196e-006 -1.46145e-006 -3.1073 8.02957 -4.95143 0.697668 -73.6371 -3.58863 3.35068 -95.0858 13.3664 -29.1914 -1.88384e-007 3.23806e-006 1.88198e-006 3.09798 -0.0142442 0.825997 1.21537e-005 -5.07457e-007 3.03544 -8.0301 -4.95138 -0.697632 -176.276 -3.22821 -2.59262 -180 7.01551e-015 178.943 178.125 6.71332 179.738 -2.44369e-006 -3.53375e-006 0.0634829 -18.371 67.7563 19.3206 8.1431 25.2323 -3.49056 -178.643 -0.967347 1.8837 4.54188e-006 -4.6773e-006 -1.10321 -3.15511 -10.9454 0.0137348 -3.7472e-006 -6.57379e-007 -0.156295 19.5812 69.2676 -20.6432 -8.14285 25.2323 3.49045 
54.505 93.9138 22.0264 -1.30815 -4.22203 -2.02933 -0.0648801 -1.06614 -0.0164588 -0.123988 1.87248 -0.0186575 -0.123849 3.51755 -0.0165313 -6.20708 8.20816 -1.54371 8.782 2.44937 -2.27295 69.0549 -2.62393 -2.53542 104.154 21.1425 17.8421 7.45785e-007 1.66361e-006 -3.35483e-006 4.97205 0.0401027 -1.52535 4.08196e-006 -1.46145e-006 -3.10731 8.02957 -4.95143 0.697668 -73.6389 -3.5949 3.35361 -95.0754 13.3806 -29.1568 -1.88384e-007 3.23806e-006 1.88198e-006 3.06555 -0.0142601 0.825989 1.21537e-005 -5.07457e-007 3.0351 -8.0301 -4.95138 -0.697632 -176.286 -3.22614 -2.5878 -180 7.01551e-015 178.943 178.127 6.72202 179.738 -2.44369e-006 -3.53375e-006 0.063726 -18.3731 67.7589 19.3227 8.1431 25.2323 -3.49056 -178.654 -0.970477 1.89274 4.54188e-006 -4.6773e-006 -1.10321 -3.15061 -10.9409 0.014966 -3.7472e-006 -6.57379e-007 -0.156295 19.5822 69.2686 -20.6441 -8.14285 25.2323 3.49045 
54.5132 93.9143 22.0231 -1.30423 -4.22512 -2.03262 -0.0648803 -1.06708 -0.0151405 -0.124044 1.87036 -0.0169201 -0.123961 3.51544 -0.0148058 -6.2075 8.24728 -1.54299 8.79021 2.42099 -2.27143 69.0762 -2.61356 -2.53201 104.113 21.1764 17.8319 7.45785e-007 1.66361e-006 -3.35483e-006 4.98283 0.0400516 -1.52557 4.08196e-006 -1.46145e-006 -3.10731 8.02957 -4.95143 0.697668 -73.6409 -3.6011 3.35652 -95.065 13.3948 -29.1221 -1.88384e-007 3.23806e-006 1.88198e-006 3.03291 -0.0142754 0.825982 1.21537e-005 -5.07457e-007 3.03476 -8.0301 -4.95138 -0.697632 -176.296 -3.22409 -2.58293 -180 7.01551e-015 178.943 178.128 6.73067 179.738 -2.44369e-006 -3.53375e-006 0.0639691 -18.3752 67.7614 19.3248 8.1431 25.2323 -3.49056 -178.665 -0.973696 1.90171 4.54188e-006 -4.6773e-006 -1.10321 -3.14618 -10.9364 0.0161827 -3.7472e-006 -6.57379e-007 -0.156295 19.5832 69.2697 -20.6451 -8.14285 25.2323 3.49045 
54.5163 93.9229 22.0204 -1.3003 -4.22838 -2.03589 -0.0648804 -1.06797 -0.0138237 -0.124101 1.86834 -0.0151705 -0.124074 3.51342 -0.0130676 -6.20783 8.2862 -1.54226 8.7982 2.39265 -2.2699 69.0973 -2.60328 -2.52863 104.072 21.2101 17.8214 7.45785e-007 1.66361e-006 -3.35483e-006 4.99381 0.0400068 -1.52576 4.08196e-006 -1.46145e-006 -3.10731 8.02957 -4.95143 0.697668 -73.6431 -3.60713 3.35938 -95.0544 13.4088 -29.0868 -1.88384e-007 3.23806e-006 1.88198e-006 2.99975 -0.0142888 0.825974 1.21537e-005 -5.07457e-007 3.03441 -8.0301 -4.95138 -0.697632 -176.306 -3.22211 -2.57791 -180 7.01551e-015 178.943 178.13 6.73926 179.738 -2.44369e-006 -3.53375e-006 0.0642121 -18.3773 67.764 19.327 8.1431 25.2323 -3.49056 -178.676 -0.977138 1.9105 4.54188e-006 -4.6773e-006 -1.10321 -3.14193 -10.9319 0.0173635 -3.7472e-006 -6.57379e-007 -0.156295 19.584 69.2705 -20.6459 -8.14285 25.2323 3.49045 
54.5104 93.9211 21.9759 -1.29636 -4.23189 -2.03913 -0.0648804 -1.06877 -0.0125093 -0.124161 1.8665 -0.0134012 -0.124189 3.51158 -0.0113094 -6.20802 8.32482 -1.54154 8.80583 2.36434 -2.26836 69.1181 -2.59314 -2.5253 104.031 21.2435 17.8104 7.45785e-007 1.66361e-006 -3.35483e-006 5.00511 0.0399718 -1.52591 4.08196e-006 -1.46145e-006 -3.10732 8.02957 -4.95143 0.697668 -73.6458 -3.61291 3.36216 -95.0435 13.4225 -29.0509 -1.88384e-007 3.23806e-006 1.88198e-006 2.96575 -0.0142993 0.825966 1.21537e-005 -5.07457e-007 3.03405 -8.0301 -4.95138 -0.697632 -176.316 -3.22023 -2.57265 -180 7.01551e-015 178.943 178.131 6.74772 179.738 -2.44369e-006 -3.53375e-006 0.0644548 -18.3794 67.7667 19.3292 8.1431 25.2323 -3.49056 -178.687 -0.980937 1.91902 4.54188e-006 -4.6773e-006 -1.10321 -3.138 -10.9272 0.0184866 -3.7472e-006 -6.57379e-007 -0.156295 19.5846 69.2712 -20.6464 -8.14285 25.2323 3.49045 
54.5197 93.9246 21.9801 -1.2924 -4.23576 -2.04233 -0.0648804 -1.06946 -0.0111982 -0.124225 1.86489 -0.0116049 -0.124306 3.50998 -0.0095234 -6.20801 8.36303 -1.54082 8.81299 2.3361 -2.26679 69.1385 -2.5832 -2.52204 103.992 21.2764 17.7987 7.45785e-007 1.66361e-006 -3.35483e-006 5.01686 0.0399506 -1.52602 4.08196e-006 -1.46145e-006 -3.10732 8.02957 -4.95143 0.697668 -73.6492 -3.61833 3.36483 -95.0323 13.4359 -29.0139 -1.88384e-007 3.23806e-006 1.88198e-006 2.9306 -0.0143057 0.825957 1.21537e-005 -5.07457e-007 3.03368 -8.0301 -4.95138 -0.697632 -176.326 -3.21849 -2.56707 -180 7.01551e-015 178.943 178.131 6.75602 179.738 -2.44369e-006 -3.53375e-006 0.0646971 -18.3816 67.7693 19.3315 8.1431 25.2323 -3.49056 -178.698 -0.985227 1.92715 4.54188e-006 -4.6773e-006 -1.10321 -3.13447 -10.9224 0.0195307 -3.7472e-006 -6.57379e-007 -0.156295 19.585 69.2716 -20.6468 -8.14285 25.2323 3.49045 
54.5217 93.9238 21.9754 -1.28842 -4.24009 -2.04549 -0.0648803 -1.07001 -0.00989126 -0.124293 1.86359 -0.0097742 -0.124426 3.50867 -0.00770221 -6.20775 8.4007 -1.54012 8.81953 2.30794 -2.26521 69.1584 -2.57351 -2.51886 103.952 21.3088 17.7862 7.45785e-007 1.66361e-006 -3.35483e-006 5.02916 0.0399467 -1.52606 4.08196e-006 -1.46145e-006 -3.10732 8.02957 -4.95143 0.697668 -73.6535 -3.62329 3.36736 -95.0206 13.4489 -28.9756 -1.88384e-007 3.23806e-006 1.88198e-006 2.894 -0.0143071 0.825948 1.21537e-005 -5.07457e-007 3.03329 -8.0301 -4.95138 -0.697632 -176.336 -3.21694 -2.56108 -180 7.01551e-015 178.943 178.131 6.76409 179.738 -2.44369e-006 -3.53375e-006 0.064939 -18.3838 67.7721 19.3339 8.1431 25.2323 -3.49056 -178.708 -0.990141 1.9348 4.54188e-006 -4.6773e-006 -1.10321 -3.13148 -10.9174 0.020474 -3.7472e-006 -6.57379e-007 -0.156295 19.5849 69.2715 -20.6467 -8.14285 25.2323 3.49045 
54.5269 93.9202 21.9645 -1.28441 -4.24496 -2.04859 -0.0648801 -1.07039 -0.00858943 -0.124367 1.86264 -0.00790174 -0.124551 3.50772 -0.00583824 -6.20719 8.43772 -1.53941 8.82532 2.27988 -2.2636 69.1776 -2.56412 -2.51578 103.914 21.3406 17.7727 7.45785e-007 1.66361e-006 -3.35483e-006 5.04215 0.039964 -1.52602 4.08196e-006 -1.46145e-006 -3.10732 8.02957 -4.95143 0.697668 -73.6588 -3.6277 3.36971 -95.0084 13.4613 -28.9358 -1.88384e-007 3.23806e-006 1.88198e-006 2.85562 -0.0143023 0.825938 1.21537e-005 -5.07457e-007 3.03288 -8.0301 -4.95138 -0.697632 -176.346 -3.2156 -2.55459 -180 7.01551e-015 178.943 178.13 6.77193 179.738 -2.44369e-006 -3.53375e-006 0.0651803 -18.3861 67.7749 19.3364 8.1431 25.2323 -3.49056 -178.719 -0.995813 1.94185 4.54188e-006 -4.6773e-006 -1.10321 -3.12913 -10.9122 0.021295 -3.7472e-006 -6.57379e-007 -0.156295 19.5845 69.271 -20.6463 -8.14285 25.2323 3.49045 
